<?xml version="1.0" encoding="UTF-8" standalone="no"?>
<!DOCTYPE svg PUBLIC "-//W3C//DTD SVG 1.1//EN"
 "http://www.w3.org/Graphics/SVG/1.1/DTD/svg11.dtd">
<!-- Generated by graphviz version 2.47.0 (20210316.0004)
 -->
<!-- Title: dependencies Pages: 1 -->
<svg width="504pt" height="211pt"
 viewBox="0.00 0.00 504.00 211.00" xmlns="http://www.w3.org/2000/svg" xmlns:xlink="http://www.w3.org/1999/xlink">
<g id="graph0" class="graph" transform="scale(1 1) rotate(0) translate(4 207)">
<title>dependencies</title>
<polygon fill="white" stroke="transparent" points="-4,4 -4,-207 500,-207 500,4 -4,4"/>
<text text-anchor="start" x="227.01" y="-42.4" font-family="Times-12" font-weight="bold" font-size="14.00">Legend</text>
<polygon fill="#ffffb3" stroke="transparent" points="14,-10 14,-30 34,-30 34,-10 14,-10"/>
<text text-anchor="start" x="37.63" y="-15.4" font-family="Times-12" font-size="14.00"> &#160;Declarations</text>
<polygon fill="#8dd3c7" stroke="transparent" points="127,-10 127,-30 147,-30 147,-10 127,-10"/>
<text text-anchor="start" x="150.73" y="-15.4" font-family="Times-12" font-size="14.00"> &#160;Module</text>
<polygon fill="#80b1d3" stroke="transparent" points="213,-10 213,-30 233,-30 233,-10 213,-10"/>
<text text-anchor="start" x="236.78" y="-15.4" font-family="Times-12" font-size="14.00"> &#160;Bootstrap</text>
<polygon fill="#fdb462" stroke="transparent" points="310,-10 310,-30 330,-30 330,-10 310,-10"/>
<text text-anchor="start" x="333.67" y="-15.4" font-family="Times-12" font-size="14.00"> &#160;Providers</text>
<polygon fill="#fb8072" stroke="transparent" points="406,-10 406,-30 426,-30 426,-10 406,-10"/>
<text text-anchor="start" x="429.73" y="-15.4" font-family="Times-12" font-size="14.00"> &#160;Exports</text>
<g id="clust1" class="cluster">
<title>cluster_AppModule</title>
<polygon fill="none" stroke="black" stroke-dasharray="1,5" points="72,-70 72,-195 424,-195 424,-70 72,-70"/>
</g>
<g id="clust6" class="cluster">
<title>cluster_AppModule_providers</title>
<polygon fill="none" stroke="black" points="286,-78 286,-130 416,-130 416,-78 286,-78"/>
</g>
<g id="clust3" class="cluster">
<title>cluster_AppModule_imports</title>
<polygon fill="none" stroke="black" points="80,-78 80,-130 278,-130 278,-78 80,-78"/>
</g>
<!-- CatModule -->
<g id="node1" class="node">
<title>CatModule</title>
<polygon fill="#8dd3c7" stroke="black" points="270.49,-122 267.49,-126 246.49,-126 243.49,-122 191.51,-122 191.51,-86 270.49,-86 270.49,-122"/>
<text text-anchor="middle" x="231" y="-99.8" font-family="Times,serif" font-size="14.00">CatModule</text>
</g>
<!-- AppModule -->
<g id="node3" class="node">
<title>AppModule</title>
<polygon fill="#8dd3c7" stroke="black" points="272.66,-187 269.66,-191 248.66,-191 245.66,-187 189.34,-187 189.34,-151 272.66,-151 272.66,-187"/>
<text text-anchor="middle" x="231" y="-164.8" font-family="Times,serif" font-size="14.00">AppModule</text>
</g>
<!-- CatModule&#45;&gt;AppModule -->
<g id="edge1" class="edge">
<title>CatModule&#45;&gt;AppModule</title>
<path fill="none" stroke="black" d="M231,-122.11C231,-122.11 231,-140.99 231,-140.99"/>
<polygon fill="black" stroke="black" points="227.5,-140.99 231,-150.99 234.5,-140.99 227.5,-140.99"/>
</g>
<!-- UserModule -->
<g id="node2" class="node">
<title>UserModule</title>
<polygon fill="#8dd3c7" stroke="black" points="173.98,-122 170.98,-126 149.98,-126 146.98,-122 88.02,-122 88.02,-86 173.98,-86 173.98,-122"/>
<text text-anchor="middle" x="131" y="-99.8" font-family="Times,serif" font-size="14.00">UserModule</text>
</g>
<!-- UserModule&#45;&gt;AppModule -->
<g id="edge2" class="edge">
<title>UserModule&#45;&gt;AppModule</title>
<path fill="none" stroke="black" d="M131,-122.11C131,-141.34 131,-169 131,-169 131,-169 179.17,-169 179.17,-169"/>
<polygon fill="black" stroke="black" points="179.17,-172.5 189.17,-169 179.17,-165.5 179.17,-172.5"/>
</g>
<!-- AppService -->
<g id="node4" class="node">
<title>AppService</title>
<ellipse fill="#fdb462" stroke="black" cx="351" cy="-104" rx="56.74" ry="18"/>
<text text-anchor="middle" x="351" y="-99.8" font-family="Times,serif" font-size="14.00">AppService</text>
</g>
<!-- AppService&#45;&gt;AppModule -->
<g id="edge3" class="edge">
<title>AppService&#45;&gt;AppModule</title>
<path fill="none" stroke="black" d="M351,-122.11C351,-141.34 351,-169 351,-169 351,-169 282.97,-169 282.97,-169"/>
<polygon fill="black" stroke="black" points="282.97,-165.5 272.97,-169 282.97,-172.5 282.97,-165.5"/>
</g>
</g>
</svg>
