<?xml version="1.0" encoding="UTF-8" standalone="no"?>
<!DOCTYPE svg PUBLIC "-//W3C//DTD SVG 1.1//EN"
 "http://www.w3.org/Graphics/SVG/1.1/DTD/svg11.dtd">
<!-- Generated by graphviz version 2.47.0 (20210316.0004)
 -->
<!-- Title: dependencies Pages: 1 -->
<svg width="528pt" height="287pt"
 viewBox="0.00 0.00 528.00 287.00" xmlns="http://www.w3.org/2000/svg" xmlns:xlink="http://www.w3.org/1999/xlink">
<g id="graph0" class="graph" transform="scale(1 1) rotate(0) translate(4 283)">
<title>dependencies</title>
<polygon fill="white" stroke="transparent" points="-4,4 -4,-283 524,-283 524,4 -4,4"/>
<text text-anchor="start" x="239.01" y="-42.4" font-family="Times-12" font-weight="bold" font-size="14.00">Legend</text>
<polygon fill="#ffffb3" stroke="transparent" points="26,-10 26,-30 46,-30 46,-10 26,-10"/>
<text text-anchor="start" x="49.63" y="-15.4" font-family="Times-12" font-size="14.00"> &#160;Declarations</text>
<polygon fill="#8dd3c7" stroke="transparent" points="139,-10 139,-30 159,-30 159,-10 139,-10"/>
<text text-anchor="start" x="162.73" y="-15.4" font-family="Times-12" font-size="14.00"> &#160;Module</text>
<polygon fill="#80b1d3" stroke="transparent" points="225,-10 225,-30 245,-30 245,-10 225,-10"/>
<text text-anchor="start" x="248.78" y="-15.4" font-family="Times-12" font-size="14.00"> &#160;Bootstrap</text>
<polygon fill="#fdb462" stroke="transparent" points="322,-10 322,-30 342,-30 342,-10 322,-10"/>
<text text-anchor="start" x="345.67" y="-15.4" font-family="Times-12" font-size="14.00"> &#160;Providers</text>
<polygon fill="#fb8072" stroke="transparent" points="418,-10 418,-30 438,-30 438,-10 418,-10"/>
<text text-anchor="start" x="441.73" y="-15.4" font-family="Times-12" font-size="14.00"> &#160;Exports</text>
<g id="clust1" class="cluster">
<title>cluster_AppModule</title>
<polygon fill="none" stroke="black" stroke-dasharray="1,5" points="8,-146 8,-271 360,-271 360,-146 8,-146"/>
</g>
<g id="clust3" class="cluster">
<title>cluster_AppModule_imports</title>
<polygon fill="none" stroke="black" points="154,-154 154,-206 352,-206 352,-154 154,-154"/>
</g>
<g id="clust6" class="cluster">
<title>cluster_AppModule_providers</title>
<polygon fill="none" stroke="black" points="16,-154 16,-206 146,-206 146,-154 16,-154"/>
</g>
<g id="clust7" class="cluster">
<title>cluster_CatModule</title>
<polygon fill="none" stroke="black" stroke-dasharray="1,5" points="81,-70 81,-138 219,-138 219,-70 81,-70"/>
</g>
<g id="clust12" class="cluster">
<title>cluster_CatModule_providers</title>
<polygon fill="none" stroke="black" points="89,-78 89,-130 211,-130 211,-78 89,-78"/>
</g>
<g id="clust13" class="cluster">
<title>cluster_UserModule</title>
<polygon fill="none" stroke="black" stroke-dasharray="1,5" points="227,-70 227,-138 512,-138 512,-70 227,-70"/>
</g>
<g id="clust18" class="cluster">
<title>cluster_UserModule_providers</title>
<polygon fill="none" stroke="black" points="235,-78 235,-130 504,-130 504,-78 235,-78"/>
</g>
<!-- CatModule -->
<g id="node1" class="node">
<title>CatModule</title>
<polygon fill="#8dd3c7" stroke="black" points="240.49,-198 237.49,-202 216.49,-202 213.49,-198 161.51,-198 161.51,-162 240.49,-162 240.49,-198"/>
<text text-anchor="middle" x="201" y="-175.8" font-family="Times,serif" font-size="14.00">CatModule</text>
</g>
<!-- AppModule -->
<g id="node3" class="node">
<title>AppModule</title>
<polygon fill="#8dd3c7" stroke="black" points="242.66,-263 239.66,-267 218.66,-267 215.66,-263 159.34,-263 159.34,-227 242.66,-227 242.66,-263"/>
<text text-anchor="middle" x="201" y="-240.8" font-family="Times,serif" font-size="14.00">AppModule</text>
</g>
<!-- CatModule&#45;&gt;AppModule -->
<g id="edge1" class="edge">
<title>CatModule&#45;&gt;AppModule</title>
<path fill="none" stroke="black" d="M201,-198.11C201,-198.11 201,-216.99 201,-216.99"/>
<polygon fill="black" stroke="black" points="197.5,-216.99 201,-226.99 204.5,-216.99 197.5,-216.99"/>
</g>
<!-- UserModule -->
<g id="node2" class="node">
<title>UserModule</title>
<polygon fill="#8dd3c7" stroke="black" points="343.98,-198 340.98,-202 319.98,-202 316.98,-198 258.02,-198 258.02,-162 343.98,-162 343.98,-198"/>
<text text-anchor="middle" x="301" y="-175.8" font-family="Times,serif" font-size="14.00">UserModule</text>
</g>
<!-- UserModule&#45;&gt;AppModule -->
<g id="edge2" class="edge">
<title>UserModule&#45;&gt;AppModule</title>
<path fill="none" stroke="black" d="M301,-198.11C301,-217.34 301,-245 301,-245 301,-245 252.83,-245 252.83,-245"/>
<polygon fill="black" stroke="black" points="252.83,-241.5 242.83,-245 252.83,-248.5 252.83,-241.5"/>
</g>
<!-- AppService -->
<g id="node4" class="node">
<title>AppService</title>
<ellipse fill="#fdb462" stroke="black" cx="81" cy="-180" rx="56.74" ry="18"/>
<text text-anchor="middle" x="81" y="-175.8" font-family="Times,serif" font-size="14.00">AppService</text>
</g>
<!-- AppService&#45;&gt;AppModule -->
<g id="edge3" class="edge">
<title>AppService&#45;&gt;AppModule</title>
<path fill="none" stroke="black" d="M81,-198.11C81,-217.34 81,-245 81,-245 81,-245 149.03,-245 149.03,-245"/>
<polygon fill="black" stroke="black" points="149.03,-248.5 159.03,-245 149.03,-241.5 149.03,-248.5"/>
</g>
<!-- CatService -->
<g id="node5" class="node">
<title>CatService</title>
<ellipse fill="#fdb462" stroke="black" cx="150" cy="-104" rx="53.31" ry="18"/>
<text text-anchor="middle" x="150" y="-99.8" font-family="Times,serif" font-size="14.00">CatService</text>
</g>
<!-- CatService&#45;&gt;CatModule -->
<g id="edge4" class="edge">
<title>CatService&#45;&gt;CatModule</title>
<path fill="none" stroke="black" d="M182.45,-118.3C182.45,-118.3 182.45,-151.73 182.45,-151.73"/>
<polygon fill="black" stroke="black" points="178.95,-151.73 182.45,-161.73 185.95,-151.73 178.95,-151.73"/>
</g>
<!-- AuthService -->
<g id="node6" class="node">
<title>AuthService</title>
<ellipse fill="#fdb462" stroke="black" cx="437" cy="-104" rx="59.11" ry="18"/>
<text text-anchor="middle" x="437" y="-99.8" font-family="Times,serif" font-size="14.00">AuthService</text>
</g>
<!-- AuthService&#45;&gt;UserModule -->
<g id="edge5" class="edge">
<title>AuthService&#45;&gt;UserModule</title>
<path fill="none" stroke="black" d="M437,-122.01C437,-144.49 437,-180 437,-180 437,-180 354.03,-180 354.03,-180"/>
<polygon fill="black" stroke="black" points="354.03,-176.5 344.03,-180 354.03,-183.5 354.03,-176.5"/>
</g>
<!-- UserService -->
<g id="node7" class="node">
<title>UserService</title>
<ellipse fill="#fdb462" stroke="black" cx="301" cy="-104" rx="58.44" ry="18"/>
<text text-anchor="middle" x="301" y="-99.8" font-family="Times,serif" font-size="14.00">UserService</text>
</g>
<!-- UserService&#45;&gt;UserModule -->
<g id="edge6" class="edge">
<title>UserService&#45;&gt;UserModule</title>
<path fill="none" stroke="black" d="M301,-122.01C301,-122.01 301,-151.85 301,-151.85"/>
<polygon fill="black" stroke="black" points="297.5,-151.85 301,-161.85 304.5,-151.85 297.5,-151.85"/>
</g>
</g>
</svg>
